<?xml version="1.0" standalone="no"?>
<!DOCTYPE svg PUBLIC "-//W3C//DTD SVG 20010904//EN"
 "http://www.w3.org/TR/2001/REC-SVG-20010904/DTD/svg10.dtd">
<svg version="1.0" xmlns="http://www.w3.org/2000/svg"
 width="312.000000" height="138.000000" viewBox="0 0 312.000000 138.000000"
 preserveAspectRatio="xMidYMid meet">
<g transform="translate(0.000000,138.000000) scale(0.100000,-0.100000)"
fill="#000000" stroke="none">
<path d="M0 690 l0 -690 1560 0 1560 0 0 690 0 690 -1560 0 -1560 0 0 -690z
m1478 456 c15 -8 39 -19 55 -25 31 -12 36 -31 8 -31 -10 0 -22 -7 -25 -16 -10
-25 -7 -84 4 -84 5 0 14 -9 20 -19 8 -15 4 -40 -16 -103 -14 -46 -27 -90 -30
-98 -4 -15 23 12 64 65 16 20 21 23 17 10 -4 -11 -11 -36 -15 -55 -3 -19 -23
-69 -42 -110 -33 -69 -37 -85 -44 -208 l-9 -132 -28 23 c-22 17 -30 34 -34 70
-4 34 -10 47 -19 43 -12 -5 -74 20 -74 30 0 3 9 22 20 44 11 21 42 105 70 186
48 141 50 151 50 257 l0 110 -47 -7 c-27 -3 -57 -15 -72 -29 -13 -12 -21 -17
-18 -10 4 6 2 13 -4 15 -24 8 22 37 76 48 36 7 55 16 55 26 0 17 5 18 38 0z
m1187 -32 c17 -13 18 -16 5 -24 -8 -5 -21 -10 -28 -10 -18 0 -63 36 -55 44 12
11 58 6 78 -10z m-821 -19 c10 -7 15 -18 11 -24 -3 -6 10 -20 29 -32 20 -12
36 -23 36 -25 0 -3 -16 -12 -35 -20 -19 -8 -35 -20 -35 -27 0 -6 -3 -22 -6
-33 -5 -17 0 -24 25 -32 57 -20 52 -62 -7 -64 -26 -1 -33 -7 -45 -37 l-15 -35
33 -11 c76 -27 115 -76 115 -149 0 -41 -5 -53 -34 -82 -30 -30 -40 -34 -85
-34 -45 0 -51 -2 -51 -21 0 -20 0 -20 -29 3 -17 13 -30 28 -30 33 -1 6 -10 16
-21 23 -25 16 -25 40 0 67 14 15 23 45 30 96 5 41 16 99 24 129 17 63 14 74
-8 33 -8 -16 -22 -35 -30 -42 -9 -8 -16 -20 -16 -28 0 -28 -32 -83 -49 -83 -9
0 -27 9 -40 19 l-23 18 11 124 c8 84 8 125 1 127 -5 2 -3 10 6 19 26 26 144
21 144 -6 0 -5 -22 -7 -49 -5 l-49 3 -7 -103 c-4 -58 -6 -109 -4 -115 3 -7 37
32 76 86 63 85 73 104 78 153 11 95 15 101 49 75z m-800 -40 c14 -22 24 -25
75 -25 44 0 65 -5 85 -21 29 -23 32 -57 6 -69 -8 -4 -31 -14 -50 -23 -19 -9
-53 -18 -74 -20 -22 -1 -41 -8 -44 -15 -2 -8 5 -10 26 -6 42 8 79 -28 96 -92
14 -52 10 -108 -13 -183 -8 -26 -7 -36 4 -48 24 -23 19 -29 -47 -52 -35 -12
-89 -34 -121 -48 -42 -18 -68 -23 -92 -19 -49 10 -51 31 -4 45 21 6 43 19 47
29 5 9 12 64 16 122 8 125 13 183 26 272 15 103 18 98 -48 98 -32 0 -66 6 -75
13 -14 10 -2 11 68 8 l85 -3 0 31 c0 37 12 40 34 6z m1769 -14 c39 -24 50 -47
18 -36 -14 4 -23 0 -30 -14 -15 -27 -14 -51 3 -51 8 0 24 -9 37 -19 l24 -19
-48 -51 c-54 -58 -61 -79 -17 -56 38 20 53 19 74 -4 17 -19 17 -20 -5 -31 -12
-7 -42 -30 -66 -53 -38 -35 -43 -44 -37 -70 5 -26 4 -28 -13 -19 -13 7 -26 6
-42 -3 -26 -13 -123 -126 -116 -133 2 -3 48 23 102 56 l98 60 3 51 c3 51 19
68 29 31 3 -12 21 -27 39 -35 40 -16 43 -27 12 -40 -16 -7 -27 -26 -37 -63
-12 -45 -18 -53 -44 -60 -17 -4 -45 -6 -61 -3 l-31 4 31 9 c33 8 61 34 50 45
-3 3 -44 -17 -90 -45 -87 -53 -124 -63 -146 -37 -15 18 -13 20 78 128 55 65
67 85 49 78 -22 -9 -42 -2 -76 26 -3 2 25 34 61 71 50 50 68 76 73 105 6 32 5
37 -12 37 -10 0 -23 -4 -28 -9 -14 -14 -49 -17 -55 -6 -2 6 19 18 47 28 45 17
51 23 55 50 2 18 2 40 0 49 -4 23 -36 32 -62 18 -12 -7 -24 -9 -28 -6 -11 12
16 27 51 29 20 1 39 8 42 15 3 8 10 10 17 5 7 -5 30 -19 51 -32z m-2250 -26
c34 -39 46 -74 53 -154 l7 -82 -38 -55 c-21 -30 -74 -88 -118 -129 -44 -41
-75 -75 -68 -75 21 0 141 74 141 87 0 20 16 15 36 -12 24 -32 24 -49 1 -53
-10 -2 -49 -21 -86 -42 -37 -21 -86 -43 -109 -50 -39 -10 -44 -9 -77 17 l-35
28 91 91 91 91 -44 26 c-60 35 -120 102 -116 130 7 47 178 86 252 57 25 -9 26
-8 26 26 0 39 -22 98 -48 128 -16 20 -16 20 3 6 11 -8 28 -24 38 -35z m2043
20 c-14 -37 -49 -303 -42 -321 5 -10 10 -43 11 -71 3 -50 2 -52 -17 -42 -20
11 -21 17 -15 113 4 55 16 153 27 216 11 63 20 116 20 118 0 1 5 2 11 2 6 0 9
-7 5 -15z m-331 -20 c29 -28 32 -50 8 -59 -15 -6 -32 8 -33 27 0 4 -13 7 -29
7 -16 0 -34 7 -41 15 -33 40 56 50 95 10z m-1544 -125 c22 -99 30 -120 44
-120 8 0 15 -7 15 -15 0 -18 -11 -19 -34 -2 -20 15 -54 134 -56 203 -4 73 1
85 11 29 5 -27 14 -70 20 -95z m1577 -149 c40 -28 48 -68 25 -115 -17 -36 -17
-38 0 -47 9 -6 17 -17 17 -24 0 -16 -27 -20 -49 -6 -9 6 -29 -1 -60 -20 -61
-38 -124 -47 -176 -24 l-40 18 47 8 c44 7 134 45 144 60 7 12 -60 29 -120 31
-39 1 -61 7 -72 19 -11 12 -12 19 -4 24 16 10 114 -4 183 -25 l58 -18 20 31
c30 49 22 69 -36 90 -27 10 -61 29 -74 42 l-24 23 66 -23 c36 -12 79 -32 95
-44z m713 -114 c13 -49 8 -63 -25 -69 -33 -6 -40 3 -25 35 7 16 8 35 1 60 -6
20 -7 38 -4 41 11 12 42 -28 53 -67z m-546 -140 c16 -34 31 -65 33 -69 9 -19
-21 -6 -43 18 -36 39 -54 115 -27 114 4 -1 20 -29 37 -63z"/>
<path d="M1810 700 c-32 -32 -26 -50 12 -39 18 5 39 9 45 9 23 0 14 -17 -14
-29 -30 -13 -83 -75 -83 -98 0 -16 40 -17 75 -1 50 23 72 109 39 156 -19 27
-48 28 -74 2z"/>
<path d="M1077 988 c-20 -16 -32 -64 -18 -72 19 -12 121 52 121 76 0 13 -84 9
-103 -4z"/>
<path d="M1061 834 c-25 -31 -27 -50 -7 -57 8 -3 22 -20 31 -37 14 -26 14 -40
5 -82 -12 -61 -8 -71 11 -26 20 48 19 193 -2 213 -15 15 -18 14 -38 -11z"/>
<path d="M1010 690 c-9 -47 -13 -98 -9 -115 5 -28 7 -27 23 27 13 44 15 70 9
115 l-8 58 -15 -85z"/>
<path d="M1069 553 c-13 -15 -12 -15 9 -4 23 12 28 21 13 21 -5 0 -15 -7 -22
-17z"/>
<path d="M419 835 c-25 -8 -54 -24 -64 -35 -17 -19 -17 -21 0 -40 10 -11 35
-25 55 -31 31 -9 44 -8 73 6 37 17 77 69 77 99 0 21 -74 21 -141 1z"/>
</g>
</svg>
