<?xml version="1.0" standalone="no"?>
<!DOCTYPE svg PUBLIC "-//W3C//DTD SVG 20010904//EN"
 "http://www.w3.org/TR/2001/REC-SVG-20010904/DTD/svg10.dtd">
<svg version="1.0" xmlns="http://www.w3.org/2000/svg"
 width="312.000000" height="138.000000" viewBox="0 0 312.000000 138.000000"
 preserveAspectRatio="xMidYMid meet">
<g transform="translate(0.000000,138.000000) scale(0.100000,-0.100000)"
fill="#000000" stroke="none">
<path d="M1440 1146 c0 -10 -19 -19 -55 -26 -54 -11 -100 -40 -76 -48 6 -2 8
-9 4 -15 -3 -7 5 -2 18 10 15 14 45 26 72 29 l47 7 0 -110 c0 -106 -2 -116
-50 -257 -28 -81 -59 -165 -70 -186 -11 -22 -20 -41 -20 -44 0 -10 62 -35 74
-30 9 4 15 -9 19 -43 4 -36 12 -53 34 -70 l28 -23 9 132 c7 123 11 139 44 208
19 41 39 91 42 110 4 19 11 44 15 55 4 13 -1 10 -17 -10 -41 -53 -68 -80 -64
-65 3 8 16 52 30 98 20 63 24 88 16 103 -6 10 -15 19 -20 19 -11 0 -14 59 -4
84 3 9 15 16 25 16 28 0 23 19 -8 31 -16 6 -40 17 -55 25 -33 18 -38 17 -38 0z"/>
<path d="M2587 1124 c-8 -8 37 -44 55 -44 7 0 20 5 28 10 13 8 12 11 -5 24
-20 16 -66 21 -78 10z"/>
<path d="M1806 1093 c-2 -10 -7 -43 -11 -73 -5 -49 -15 -68 -78 -153 -39 -54
-73 -93 -76 -86 -2 6 0 57 4 115 l7 103 49 -3 c27 -2 49 0 49 5 0 27 -118 32
-144 6 -9 -9 -11 -17 -6 -19 7 -2 7 -43 -1 -127 l-11 -124 23 -18 c13 -10 31
-19 40 -19 17 0 49 55 49 83 0 8 7 20 16 28 8 7 22 26 30 42 22 41 25 30 8
-33 -8 -30 -19 -88 -24 -129 -7 -51 -16 -81 -30 -96 -25 -27 -25 -51 0 -67 11
-7 20 -17 21 -23 0 -5 13 -20 30 -33 29 -23 29 -23 29 -3 0 19 6 21 51 21 45
0 55 4 85 34 29 29 34 41 34 82 0 73 -39 122 -115 149 l-33 11 15 35 c12 30
19 36 45 37 59 2 64 44 7 64 -25 8 -30 15 -25 32 3 11 6 27 6 33 0 7 16 19 35
27 19 8 35 17 35 20 0 2 -16 13 -36 25 -19 12 -32 26 -29 32 4 6 -1 17 -11 24
-25 19 -32 18 -38 -2z m78 -395 c33 -47 11 -133 -39 -156 -35 -16 -75 -15 -75
1 0 23 53 85 83 98 28 12 37 29 14 29 -6 0 -27 -4 -45 -9 -38 -11 -44 7 -12
39 26 26 55 25 74 -2z"/>
<path d="M1010 1049 l0 -31 -85 3 c-70 3 -82 2 -68 -8 9 -7 43 -13 75 -13 66
0 63 5 48 -98 -13 -89 -18 -147 -26 -272 -4 -58 -11 -113 -16 -122 -4 -10 -26
-23 -47 -29 -47 -14 -45 -35 4 -45 24 -4 50 1 92 19 32 14 86 36 121 48 66 23
71 29 47 52 -11 12 -12 22 -4 48 23 75 27 131 13 183 -17 64 -54 100 -96 92
-21 -4 -28 -2 -26 6 3 7 22 14 44 15 21 2 55 11 74 20 19 9 42 19 50 23 26 12
23 46 -6 69 -20 16 -41 21 -85 21 -51 0 -61 3 -75 25 -22 34 -34 31 -34 -6z
m170 -57 c0 -24 -102 -88 -121 -76 -14 8 -2 56 18 72 19 13 103 17 103 4z
m-65 -245 c0 -47 -6 -96 -14 -115 -19 -45 -23 -35 -11 26 9 42 9 56 -5 82 -9
17 -23 34 -31 37 -20 7 -18 26 7 57 20 25 23 26 38 11 12 -12 16 -36 16 -98z
m-91 -145 c-16 -54 -18 -55 -23 -27 -4 17 0 68 9 115 l15 85 8 -58 c6 -45 4
-71 -9 -115z m76 -37 c0 -2 -10 -10 -22 -16 -21 -11 -22 -11 -9 4 13 16 31 23
31 12z"/>
<path d="M2745 1068 c-3 -7 -22 -14 -42 -15 -35 -2 -62 -17 -51 -29 4 -3 16
-1 28 6 26 14 58 5 62 -18 2 -9 2 -31 0 -49 -4 -27 -10 -33 -55 -50 -28 -10
-49 -22 -47 -28 6 -11 41 -8 55 6 5 5 18 9 28 9 17 0 18 -5 12 -37 -5 -29 -23
-55 -73 -105 -36 -37 -64 -69 -61 -71 34 -28 54 -35 76 -26 18 7 6 -13 -49
-78 -91 -108 -93 -110 -78 -128 22 -26 59 -16 146 37 46 28 87 48 90 45 11
-11 -17 -37 -50 -45 l-31 -9 31 -4 c16 -3 44 -1 61 3 26 7 32 15 44 60 10 37
21 56 37 63 31 13 28 24 -12 40 -18 8 -36 23 -39 35 -10 37 -26 20 -29 -31
l-3 -51 -98 -60 c-54 -33 -100 -59 -102 -56 -7 7 90 120 116 133 16 9 29 10
42 3 17 -9 18 -7 13 19 -6 26 -1 35 37 70 24 23 54 46 66 53 22 11 22 12 5 31
-21 23 -36 24 -74 4 -44 -23 -37 -2 17 56 l48 51 -24 19 c-13 10 -29 19 -37
19 -17 0 -18 24 -3 51 7 14 16 18 30 14 32 -11 21 12 -18 36 -21 13 -44 27
-51 32 -7 5 -14 3 -17 -5z"/>
<path d="M522 1044 c26 -30 48 -89 48 -128 0 -34 -1 -35 -26 -26 -74 29 -245
-10 -252 -57 -4 -28 56 -95 116 -130 l44 -26 -91 -91 -91 -91 35 -28 c33 -26
38 -27 77 -17 23 7 72 29 109 50 37 21 76 40 86 42 23 4 23 21 -1 53 -20 27
-36 32 -36 12 0 -13 -120 -87 -141 -87 -7 0 24 34 68 75 44 41 97 99 118 129
l38 55 -7 82 c-8 98 -30 143 -91 189 -19 14 -19 14 -3 -6z m38 -210 c0 -30
-40 -82 -77 -99 -29 -14 -42 -15 -73 -6 -20 6 -45 20 -55 31 -17 19 -17 21 0
40 38 42 205 69 205 34z"/>
<path d="M2590 1048 c0 -2 -9 -55 -20 -118 -11 -63 -23 -161 -27 -216 -6 -96
-5 -102 15 -113 19 -10 20 -8 17 42 -1 28 -6 61 -11 71 -7 18 28 284 42 321 4
8 1 15 -5 15 -6 0 -11 -1 -11 -2z"/>
<path d="M2175 1030 c-11 -18 15 -40 46 -40 16 0 29 -3 29 -7 1 -19 18 -33 33
-27 44 16 -10 84 -67 84 -19 0 -38 -5 -41 -10z"/>
<path d="M700 1020 c-11 -67 27 -246 56 -267 23 -17 34 -16 34 2 0 8 -7 15
-15 15 -16 0 -39 75 -64 215 -5 28 -10 43 -11 35z"/>
<path d="M2171 785 c13 -13 47 -32 74 -42 58 -21 66 -41 36 -90 l-20 -31 -58
18 c-69 21 -167 35 -183 25 -8 -5 -7 -12 4 -24 11 -12 33 -18 72 -19 60 -2
127 -19 120 -31 -10 -15 -100 -53 -144 -60 l-47 -8 40 -18 c52 -23 115 -14
176 24 31 19 51 26 60 20 22 -14 49 -10 49 6 0 7 -8 18 -17 24 -17 9 -17 11 0
47 35 73 3 116 -120 159 l-66 23 24 -23z"/>
<path d="M2968 694 c-3 -3 -2 -21 4 -41 7 -25 6 -44 -1 -60 -6 -14 -9 -28 -6
-32 7 -12 56 0 61 14 13 33 -39 139 -58 119z"/>
<path d="M2426 542 c-9 -16 14 -79 39 -106 22 -24 52 -37 43 -18 -2 4 -17 35
-33 69 -29 61 -39 71 -49 55z"/>
</g>
</svg>
