<?xml version="1.0" standalone="no"?>
<!DOCTYPE svg PUBLIC "-//W3C//DTD SVG 20010904//EN"
 "http://www.w3.org/TR/2001/REC-SVG-20010904/DTD/svg10.dtd">
<svg version="1.0" xmlns="http://www.w3.org/2000/svg"
 width="109.000000" height="35.000000" viewBox="0 0 109.000000 35.000000"
 preserveAspectRatio="xMidYMid meet">
<metadata>
Created by potrace 1.16, written by Peter Selinger 2001-2019
</metadata>
<g transform="translate(0.000000,35.000000) scale(0.100000,-0.100000)"
fill="#000000" stroke="none">
<path d="M239 335 c-3 -2 -26 -5 -52 -6 -48 -2 -52 -5 -39 -27 7 -9 20 -10 65
-1 32 7 56 17 54 22 -4 12 -21 20 -28 12z"/>
<path d="M510 331 c0 -6 5 -13 10 -16 22 -13 8 -23 -45 -31 -37 -6 -52 -13
-47 -21 5 -8 21 -8 62 3 30 8 76 14 103 14 35 0 47 4 44 13 -2 7 -17 11 -37 9
-24 -3 -36 2 -47 17 -14 21 -43 29 -43 12z"/>
<path d="M961 313 c-19 -8 -43 -12 -53 -10 -14 4 -18 -1 -18 -19 0 -29 14 -31
42 -4 23 21 48 27 48 11 0 -6 -10 -17 -22 -25 -17 -12 -20 -18 -10 -28 20 -20
14 -26 -43 -39 -53 -12 -74 -24 -62 -35 3 -3 14 -1 24 4 10 5 35 12 55 16 34
6 38 5 44 -19 11 -43 -4 -95 -27 -95 -19 0 -19 -1 -2 -24 29 -39 47 -11 51 79
l4 75 40 0 c27 0 38 4 35 13 -2 7 -18 11 -42 9 -53 -5 -62 15 -23 55 46 48 26
66 -41 36z"/>
<path d="M44 305 c24 -18 49 -20 44 -2 -3 6 -18 13 -34 15 -28 2 -28 2 -10
-13z"/>
<path d="M210 274 c0 -10 -5 -14 -16 -10 -23 9 -43 -15 -33 -41 5 -13 4 -25
-2 -28 -5 -4 -7 -11 -3 -16 8 -14 34 9 34 32 0 10 5 21 10 24 6 3 10 -5 10
-19 0 -29 10 -38 30 -26 13 8 12 12 -5 24 -15 11 -17 17 -8 27 6 6 19 9 27 6
19 -8 21 -61 5 -156 -6 -38 -6 -68 -1 -73 17 -17 32 47 35 147 l2 100 -32 -1
c-22 -1 -33 3 -33 12 0 8 -4 14 -10 14 -5 0 -10 -7 -10 -16z"/>
<path d="M565 240 c-35 -12 -45 -20 -34 -24 8 -4 28 -2 43 4 41 15 44 13 37
-22 -5 -25 -13 -34 -31 -36 l-25 -3 23 20 c29 25 10 39 -23 17 -28 -18 -49
-21 -40 -5 4 6 -2 13 -13 16 -11 2 -23 15 -27 26 -6 17 -9 11 -15 -28 -4 -28
-19 -79 -33 -113 -22 -54 -23 -61 -7 -47 19 18 50 95 50 126 0 10 5 21 11 25
9 5 10 -10 7 -52 -3 -32 -10 -60 -16 -62 -15 -5 -16 -32 -1 -32 5 0 17 16 25
35 14 33 16 35 31 19 16 -15 16 -17 0 -29 -29 -21 -21 -35 13 -23 23 8 34 7
47 -3 13 -12 17 -12 21 -1 3 10 10 8 27 -8 12 -11 35 -22 51 -23 24 -2 28 1
26 18 -5 28 -9 30 -27 15 -36 -30 -70 55 -53 132 14 68 14 72 -2 74 -8 1 -37
-6 -65 -16z m-20 -80 c3 -6 -4 -10 -17 -10 -18 0 -20 2 -8 10 19 12 18 12 25
0z m64 -80 c0 -12 -2 -11 -10 3 -5 9 -15 17 -20 17 -6 0 -7 -4 -4 -10 3 -5 -1
-10 -9 -10 -21 0 -20 5 6 30 21 19 21 20 2 20 -16 0 -17 2 -4 10 12 7 18 3 27
-18 7 -15 12 -34 12 -42z"/>
<path d="M12 228 c3 -7 17 -14 32 -16 20 -3 27 0 24 10 -3 7 -17 14 -32 16
-20 3 -27 0 -24 -10z"/>
<path d="M120 145 c0 -50 4 -85 10 -85 6 0 10 35 10 85 0 50 -4 85 -10 85 -6
0 -10 -35 -10 -85z"/>
<path d="M405 200 c3 -5 15 -10 26 -10 11 0 17 5 14 10 -3 6 -15 10 -26 10
-11 0 -17 -4 -14 -10z"/>
<path d="M195 162 c-35 -7 -41 -22 -9 -22 35 0 63 15 42 22 -7 2 -22 2 -33 0z"/>
<path d="M408 143 c-10 -2 -18 -11 -18 -18 0 -24 14 -24 33 1 18 24 17 26 -15
17z"/>
<path d="M30 130 c-12 -8 -12 -14 3 -45 19 -40 42 -40 27 0 -5 14 -7 32 -4 40
7 17 -4 19 -26 5z"/>
<path d="M185 111 c-16 -3 -29 -10 -27 -14 3 -9 3 -9 52 -1 22 4 40 10 40 15
0 10 -20 10 -65 0z"/>
</g>
</svg>
